<svg width="28" height="28" viewBox="0 0 28 28" fill="none" xmlns="http://www.w3.org/2000/svg">
  <path fill-rule="evenodd" clip-rule="evenodd" d="M7 15.1667C9.57733 15.1667 11.6667 17.2561 11.6667 19.8333C11.6667 22.4106 9.57733 24.5 7 24.5C4.42267 24.5 2.33333 22.4106 2.33333 19.8333C2.33333 17.2561 4.42267 15.1667 7 15.1667ZM7 17.5C5.71133 17.5 4.66667 18.5446 4.66667 19.8333C4.66667 21.122 5.71133 22.1667 7 22.1667C8.28866 22.1667 9.33333 21.122 9.33333 19.8333C9.33333 18.5446 8.28866 17.5 7 17.5Z" fill="black"/>
  <path d="M24.5 18.6667C24.8094 18.6667 25.1061 18.7896 25.3248 19.0085C25.5437 19.2272 25.6667 19.5239 25.6667 19.8333C25.6667 20.1427 25.5437 20.4394 25.3248 20.6582C25.1061 20.877 24.8094 21 24.5 21H15.1667C14.8573 21 14.5606 20.877 14.3418 20.6582C14.123 20.4394 14 20.1427 14 19.8333C14 19.5239 14.123 19.2272 14.3418 19.0085C14.5606 18.7896 14.8573 18.6667 15.1667 18.6667H24.5Z" fill="black"/>
  <path fill-rule="evenodd" clip-rule="evenodd" d="M7 3.5C9.57733 3.5 11.6667 5.58934 11.6667 8.16667C11.6667 10.744 9.57733 12.8333 7 12.8333C4.42267 12.8333 2.33333 10.744 2.33333 8.16667C2.33333 5.58934 4.42267 3.5 7 3.5ZM9.95198 6.38135C9.61027 6.03963 9.05639 6.03963 8.71468 6.38135L6.41667 8.67936L5.28531 7.54802C4.94361 7.2063 4.38972 7.2063 4.04802 7.54802C3.7063 7.88972 3.7063 8.44361 4.04802 8.78531L5.46761 10.2049C5.99157 10.7289 6.84176 10.7289 7.36573 10.2049L9.95198 7.61865C10.2937 7.27694 10.2937 6.72306 9.95198 6.38135Z" fill="black"/>
  <path d="M24.5 7C24.8094 7 25.1061 7.123 25.3248 7.3418C25.5437 7.5606 25.6667 7.85724 25.6667 8.16667C25.6667 8.47609 25.5437 8.77274 25.3248 8.99153C25.1061 9.21033 24.8094 9.33333 24.5 9.33333H15.1667C14.8573 9.33333 14.5606 9.21033 14.3418 8.99153C14.123 8.77274 14 8.47609 14 8.16667C14 7.85724 14.123 7.5606 14.3418 7.3418C14.5606 7.123 14.8573 7 15.1667 7H24.5Z" fill="black"/>
</svg>
