<svg width="28" height="28" viewBox="0 0 28 28" fill="none" xmlns="http://www.w3.org/2000/svg">
  <svg x="10.5" y="1.2264" width="16.2848" height="17.4468" viewBox="0 0 13.9596 14.9551" preserveAspectRatio="none">
    <path d="M3.7752 1.69993C4.90555 0.599987 6.42353 -0.0106541 8.00069 0.000140724C9.57785 0.0109356 11.0873 0.642298 12.2025 1.75761C13.3177 2.87292 13.9489 4.38248 13.9595 5.95964C13.9701 7.5368 13.3593 9.05472 12.2592 10.1849L12.2472 10.1969L9.24721 13.1969C8.63894 13.8054 7.90693 14.276 7.10082 14.5767C6.29471 14.8774 5.43336 15.0012 4.57519 14.9397C3.71701 14.8783 2.8821 14.633 2.12706 14.2205C1.37203 13.8079 0.714548 13.2379 0.199205 12.5489C0.0403401 12.3365 -0.0276267 12.0696 0.0102556 11.8071C0.048138 11.5445 0.188767 11.3078 0.401205 11.1489C0.613644 10.9901 0.88049 10.9221 1.14304 10.96C1.40559 10.9979 1.64234 11.1385 1.80121 11.3509C2.14467 11.8104 2.58295 12.1905 3.08631 12.4657C3.58967 12.7408 4.14632 12.9043 4.71849 12.9453C5.29065 12.9863 5.86494 12.9037 6.40236 12.7031C6.93979 12.5026 7.42778 12.1887 7.8332 11.7829L10.8262 8.78893C11.5446 8.03255 11.939 7.02548 11.9255 5.98244C11.9119 4.93939 11.4915 3.9429 10.7537 3.20543C10.016 2.46795 9.01935 2.04784 7.9763 2.03467C6.93326 2.0215 5.92633 2.41631 5.1702 3.13493L3.4552 4.83893C3.2661 5.02062 3.01319 5.12076 2.75096 5.11777C2.48873 5.11478 2.23817 5.0089 2.05326 4.82294C1.86835 4.63698 1.76389 4.38583 1.76238 4.12358C1.76087 3.86134 1.86244 3.609 2.0452 3.42093L3.76521 1.71093L3.7752 1.70093V1.69993Z" fill="black"/>
  </svg>
  <svg x="1.232" y="9.3268" width="16.2428" height="17.4272" viewBox="0 0 13.9225 14.9371" preserveAspectRatio="none">
    <path d="M6.84327 0.377863C8.0581 -0.0749558 9.38693 -0.1221 10.6308 0.243489C11.8747 0.609078 12.9666 1.36773 13.7433 2.40586C13.8914 2.61862 13.951 2.88057 13.9097 3.13648C13.8684 3.39239 13.7294 3.62226 13.5219 3.77763C13.3144 3.93299 13.0546 4.00171 12.7975 3.9693C12.5403 3.93688 12.3057 3.80586 12.1433 3.60386C11.7997 3.1444 11.3613 2.76421 10.8579 2.4891C10.3545 2.21399 9.79772 2.0504 9.22548 2.00942C8.65323 1.96844 8.07887 2.05104 7.54136 2.25162C7.00386 2.45219 6.51579 2.76604 6.11027 3.17186L3.11727 6.16486C2.39879 6.92111 2.00416 7.92811 2.01751 8.97116C2.03087 10.0142 2.45115 11.0108 3.18876 11.7484C3.92636 12.486 4.92293 12.9063 5.96598 12.9196C7.00902 12.933 8.01602 12.5383 8.77227 11.8199L10.4763 10.1169C10.5685 10.0214 10.6789 9.94517 10.8009 9.89276C10.9229 9.84035 11.0541 9.81277 11.1869 9.81161C11.3196 9.81046 11.4513 9.83576 11.5742 9.88604C11.6971 9.93632 11.8088 10.0106 11.9027 10.1045C11.9966 10.1984 12.0708 10.31 12.1211 10.4329C12.1714 10.5558 12.1967 10.6875 12.1955 10.8203C12.1944 10.953 12.1668 11.0843 12.1144 11.2063C12.062 11.3283 11.9858 11.4386 11.8903 11.5309L10.1803 13.2409L10.1683 13.2529C9.03666 14.3458 7.52104 14.9506 5.94786 14.9369C4.37468 14.9232 2.86981 14.2922 1.75736 13.1798C0.644911 12.0673 0.0138973 10.5625 0.000226816 8.98927C-0.0134437 7.41609 0.591323 5.90048 1.68427 4.76886L1.69627 4.75686L4.69627 1.75686C5.3044 1.14833 6.03627 0.677692 6.84227 0.376863L6.84327 0.377863Z" fill="black"/>
  </svg>
</svg>
